<svg id="Capa_1" data-name="Capa 1" xmlns="http://www.w3.org/2000/svg" xmlns:xlink="http://www.w3.org/1999/xlink" viewBox="0 0 1000 1000"><defs><style>.cls-1{fill:none;}.cls-2{clip-path:url(#clip-path);}.cls-3{fill:url(#linear-gradient);}.cls-4{fill:#00ffa2;}</style><clipPath id="clip-path"><rect class="cls-1" x="2416.63" y="-1463.48" width="1920" height="1080"/></clipPath><linearGradient id="linear-gradient" x1="841.45" y1="-102.29" x2="1148.35" y2="-102.29" gradientUnits="userSpaceOnUse"><stop offset="0" stop-color="#00a063"/><stop offset="1" stop-color="#00ffa2"/></linearGradient></defs><g class="cls-2"><g class="cls-2"><polygon class="cls-3" points="1148.35 -270.21 841.45 36.69 841.45 65.63 1148.35 -241.27 1148.35 -270.21"/></g></g><path class="cls-4" d="M250,264.89V735.11A14.89,14.89,0,0,0,264.89,750H735.11A14.89,14.89,0,0,0,750,735.11V264.89A14.89,14.89,0,0,0,735.11,250H264.89A14.89,14.89,0,0,0,250,264.89Zm474.86-.16-24.41,24.41H299.55l-24.41-24.41ZM397.32,554.89l.09,0,1,5.78c9.48-1.62,16.25-4.24,22.81-6.77,9.81-3.79,19.09-7.37,38.1-7.37s28.18,3.56,38,7.33c10.63,4.09,21.62,8.32,43.35,8.32s32.68-4.22,43.31-8.29c7.12-2.74,13.85-5.32,24.15-6.56a112.65,112.65,0,0,1,14-.8c19,0,28.25,3.56,38.06,7.34,9.35,3.6,19,7.3,36,8.14V696.14H303.86V546.7c14.2.79,22.25,3.88,30.7,7.13,10.63,4.09,21.62,8.32,43.34,8.32a126.77,126.77,0,0,0,20.35-1.5Zm.47-39.24a102.21,102.21,0,0,1,204.42,0,104.66,104.66,0,0,1-1.55,17.87,112.93,112.93,0,0,0-22,6.58c-9.82,3.77-19.09,7.32-38,7.32s-28.25-3.56-38.06-7.34C492,536,481,531.77,459.3,531.77s-32.76,4.25-43.41,8.36A117.81,117.81,0,0,1,402,544.81,103.12,103.12,0,0,1,397.79,515.65Zm267.65,24.44c-10.63-4.09-21.62-8.32-43.34-8.32-2.15,0-4.25,0-6.28.13a119.16,119.16,0,0,0,1.12-16.25A116.94,116.94,0,1,0,387.36,547.1c-3,.22-6.13.32-9.46.32-19,0-28.25-3.56-38.06-7.33-9.36-3.6-19-7.31-36-8.14V303.86H696.14V547.23C681.94,546.43,673.89,543.34,665.44,540.09Zm-400.71-265,24.41,24.41v400.9l-24.41,24.41Zm10.41,460.13,24.41-24.4h400.9l24.41,24.4Zm460.13-10.41-24.4-24.41V299.55l24.4-24.41Z"/><rect class="cls-4" x="460.86" y="445.67" width="15.65" height="14.73" rx="7.36"/><rect class="cls-4" x="445.21" y="469.16" width="15.65" height="14.73" rx="7.36"/><rect class="cls-4" x="476.52" y="469.16" width="15.65" height="14.73" rx="7.36"/><path class="cls-4" d="M335.63,382.59h0a7.36,7.36,0,0,0,7.37-7.36V350.36a7.35,7.35,0,0,1,7.36-7.36h24.87a7.36,7.36,0,0,0,7.36-7.37h0a7.36,7.36,0,0,0-7.36-7.36h-39.6a7.37,7.37,0,0,0-7.36,7.36v39.6A7.36,7.36,0,0,0,335.63,382.59Z"/><rect class="cls-4" x="328.27" y="398.25" width="14.73" height="15.65" rx="7.36"/><rect class="cls-4" x="656.54" y="328.27" width="15.65" height="14.73" rx="7.36"/><rect class="cls-4" x="625.24" y="328.27" width="15.65" height="14.73" rx="7.36"/><rect class="cls-4" x="656.54" y="359.58" width="15.65" height="14.73" rx="7.36"/><rect class="cls-4" x="343.46" y="602.21" width="93.92" height="14.73" rx="7.36"/><rect class="cls-4" x="460.86" y="602.21" width="15.65" height="14.73" rx="7.36"/><rect class="cls-4" x="539.13" y="649.17" width="93.92" height="14.73" rx="7.36"/><rect class="cls-4" x="500" y="649.17" width="15.65" height="14.73" rx="7.36"/><rect class="cls-4" x="578.27" y="594.39" width="70.44" height="14.73" rx="7.36"/><rect class="cls-4" x="374.77" y="657" width="46.96" height="14.73" rx="7.36"/></svg>