<svg id="Capa_1" data-name="Capa 1" xmlns="http://www.w3.org/2000/svg" viewBox="0 0 1000 1000"><defs><style>.cls-1{font-size:72px;fill:#00ffa2;font-family:MyriadPro-Regular, Myriad Pro;}.cls-2{letter-spacing:0.01em;}.cls-3{fill:none;stroke:#00ffa2;stroke-miterlimit:10;stroke-width:15px;}</style></defs><text class="cls-1" transform="translate(69.37 -385.76)">hidden<tspan x="1.22" y="86.4">socie</tspan><tspan class="cls-2" x="154.44" y="86.4">t</tspan><tspan x="178.92" y="86.4">y</tspan></text><rect class="cls-3" x="253.75" y="621.14" width="109.83" height="58.24"/><rect class="cls-3" x="253.75" y="380.97" width="109.83" height="58.24"/><rect class="cls-3" x="253.75" y="439.21" width="109.83" height="181.94"/><rect class="cls-3" x="608.04" y="613.77" width="69.11" height="65"/><rect class="cls-3" x="608.04" y="345.73" width="69.11" height="65"/><rect class="cls-3" x="608.04" y="410.73" width="69.11" height="203.04"/><rect class="cls-3" x="677.15" y="475.73" width="69.11" height="203.04"/><rect class="cls-3" x="363.57" y="475.26" width="89.3" height="204.12"/><path class="cls-3" d="M496.11,320.62l-84.84,27.92,108.14,328.6,84.83-27.93ZM475.83,432.89l18.44-6.08,45.42,138.05-18.44,6.08Z"/><rect class="cls-3" x="498.05" y="426.21" width="19.42" height="145.33" transform="translate(-130.59 183.9) rotate(-18.23)"/></svg>