<svg id="Capa_1" data-name="Capa 1" xmlns="http://www.w3.org/2000/svg" xmlns:xlink="http://www.w3.org/1999/xlink" viewBox="0 0 1000 1000"><defs><style>.cls-1,.cls-5{fill:none;}.cls-2{clip-path:url(#clip-path);}.cls-3{fill:#0d1219;}.cls-4{fill:url(#linear-gradient);}.cls-5{stroke:#00ffa2;stroke-linecap:round;stroke-linejoin:round;stroke-width:15px;}</style><clipPath id="clip-path"><rect class="cls-1" x="1396.63" y="-1463.48" width="1920" height="1080"/></clipPath><linearGradient id="linear-gradient" x1="-178.55" y1="-102.29" x2="128.35" y2="-102.29" gradientUnits="userSpaceOnUse"><stop offset="0" stop-color="#00a063"/><stop offset="1" stop-color="#00ffa2"/></linearGradient></defs><g class="cls-2"><g class="cls-2"><path class="cls-3" d="M831.48,1028.9h-3V-221.34l240.58-240.59V180.36L831.48,418Zm0-1249V413.75L1066.1,179.12V-454.74Z"/><polygon class="cls-4" points="128.35 -270.21 -178.55 36.69 -178.55 65.63 128.35 -241.27 128.35 -270.21"/></g></g><circle class="cls-5" cx="407.77" cy="328.94" r="31.5"/><path class="cls-5" d="M511.7,515a20.37,20.37,0,0,1-9.28,4.74.1.1,0,0,1-.09,0l-.53.1h0l-.27,0h0c-.85-.11-2.4,0-4.31-.22l-.64-.1h0a14,14,0,0,1-3.64-1.17l-.13,0a13.68,13.68,0,0,1-1.23-.69,14.47,14.47,0,0,1-1.27-.88,7.11,7.11,0,0,1-.6-.49,20.82,20.82,0,0,1-3.61-4.1L450,449.69V681c0,11.59-9.14,21.37-20.72,21.57a21.09,21.09,0,0,1-21.46-21.09V554.9c0,.26,0,124.52,0,124.78a23.66,23.66,0,0,1-47.31-.78V448c0,.55,0,60.51-.09,61-.77,6.89-6.39,10.71-12.25,10.71a12.33,12.33,0,0,1-12.33-12.33V420.34a33.52,33.52,0,0,1,33.5-33.5,26,26,0,0,1,3.19.19h.06a10.81,10.81,0,0,1,2.06-.19H431.1a33.43,33.43,0,0,1,27,13.68c.18.26.39.52.56.79s.43.65.64,1l1.74,3,39.06,67.3,13.7,23.71A16,16,0,0,1,511.7,515Z"/><path class="cls-5" d="M501.8,519.87v0l-.25,0h0l.27,0Z"/><path class="cls-5" d="M491.52,517.69a10.24,10.24,0,0,1-1.27-.88A14.47,14.47,0,0,0,491.52,517.69Z"/><path class="cls-5" d="M492.75,518.38c-.26-.12-.51-.24-.72-.36a5.54,5.54,0,0,1-.51-.33A13.68,13.68,0,0,0,492.75,518.38Z"/><circle class="cls-5" cx="592.23" cy="328.94" r="31.5"/><path class="cls-5" d="M502.33,519.77a4.12,4.12,0,0,1-.53.12l-.25,0h0l.27,0h0Z"/><path class="cls-5" d="M664.23,420.34v87.05a12.33,12.33,0,0,1-12.33,12.33c-6,0-11.81-4.05-12.3-11.32,0-.33,0-65.85,0-66.2V678.9a23.67,23.67,0,0,1-47.25,2c-.06-.65-.08-129.84-.08-130.5V681.47a21.1,21.1,0,0,1-42.19,0V449.69L514,512.22A12,12,0,0,1,511.7,515a16,16,0,0,0,2.09-18.7l-13.7-23.71L539,405.3l1.74-3c.22-.34.43-.68.65-1s.38-.53.55-.79a33.46,33.46,0,0,1,27-13.68h56.52a10.81,10.81,0,0,1,2.06.19h0a26.3,26.3,0,0,1,3.2-.19,33.54,33.54,0,0,1,33.5,33.5Z"/></svg>