<svg id="Capa_1" data-name="Capa 1" xmlns="http://www.w3.org/2000/svg" xmlns:xlink="http://www.w3.org/1999/xlink" viewBox="0 0 1000 1000"><defs><style>.cls-1{fill:none;}.cls-2{clip-path:url(#clip-path);}.cls-3{fill:#0d1219;}.cls-4{fill:#00ffa2;}</style><clipPath id="clip-path"><rect class="cls-1" x="376.63" y="-1463.48" width="1920" height="1080"/></clipPath></defs><g class="cls-2"><g class="cls-2"><path class="cls-3" d="M-188.52,1028.9h-3V-221.34L49.08-461.93V180.36L-188.52,418Zm0-1249V413.75L46.1,179.12V-454.74Z"/></g></g><path class="cls-4" d="M618.88,472.79c28.59-13.43,44.33-31.33,44.33-50.42,0-23.87-24.26-45.32-66.57-58.83a5,5,0,0,1-3.39-3.82,240.11,240.11,0,0,0-15.2-49.48,20.92,20.92,0,0,0-30.7-8.72c-1.74,1.17-3.68,2.58-5.73,4.08l-.64.47a70.7,70.7,0,0,1-40.5,17.76,5.24,5.24,0,0,1-1,0A71.65,71.65,0,0,1,459,306.06c-2.28-1.67-4.45-3.25-6.36-4.54a20.91,20.91,0,0,0-30.71,8.78,240,240,0,0,0-15.19,49.42,5,5,0,0,1-3.39,3.82c-42.31,13.51-66.57,34.95-66.57,58.83,0,19.09,15.74,37,44.34,50.41a5,5,0,0,1,2.87,4.56c0,.84,0,1.71,0,2.58,0,1.36,0,2.72,0,4A5,5,0,0,1,379,489a16.06,16.06,0,0,0-6.67,1.55c-3.3,1.54-13.3,6.22-8.61,46.88a63.81,63.81,0,0,0,25.83,40.34,5,5,0,0,1,2.07,4.64A70.6,70.6,0,0,0,417.89,646l.25.22a148.21,148.21,0,0,1,23.88,28c10.07,14.32,19.6,27.82,42.64,27.82h30.68c23,0,32.57-13.51,42.64-27.82a148.32,148.32,0,0,1,23.88-28l.25-.22a70.62,70.62,0,0,0,26.25-63.6,5,5,0,0,1,2.06-4.64A63.82,63.82,0,0,0,636.3,537c4.64-40.25-5.36-44.93-8.64-46.47A16.43,16.43,0,0,0,621,489a5,5,0,0,1-4.93-5.05c0-1.29,0-2.68,0-4.06,0-.85,0-1.71,0-2.54A5,5,0,0,1,618.88,472.79ZM417.63,400c0-.39.06-.77.08-1.16.16-3.13.39-7.24.82-11.48.15-1.49.34-2.91.53-4.29.07-.57.15-1.15.23-1.72.31-2.52.7-5.52,1.18-8.53a234.08,234.08,0,0,1,16-55.93,5,5,0,0,1,7.39-2.19c1.88,1.27,4,2.78,6,4.25l.33.26A85,85,0,0,0,500,339.72a85,85,0,0,0,49.89-20.47l.31-.25c1.94-1.43,4.15-3.06,6.31-4.35a5,5,0,0,1,7.17,2.35,237.77,237.77,0,0,1,15.85,55.86c.48,2.95.86,5.95,1.19,8.53.07.56.15,1.14.22,1.71.19,1.39.38,2.82.53,4.31.34,3.34.59,6.87.82,11.45,0,.42.05.83.08,1.24,0,.61.1,1.22.12,1.85a5,5,0,0,1-2.62,4.58,174.59,174.59,0,0,1-66.18,20.21c-4.61.42-9.2.63-13.69.63a159.1,159.1,0,0,1-38.31-4.84,179.15,179.15,0,0,1-41.55-16,5,5,0,0,1-2.63-4.55C417.53,401.3,417.58,400.66,417.63,400Zm200,109.7a5,5,0,0,1,3.75,4.67,142.52,142.52,0,0,1-.78,20.35l-.06.4a46.44,46.44,0,0,1-22.65,31.59,5,5,0,0,1-.74.34,7.15,7.15,0,0,0-1.43.73,8,8,0,0,0-3.61,7.05l.1,2.08c1,20.89,1.86,37.4-20.75,57.28a161.77,161.77,0,0,0-26.33,30.66L545,665c-10.3,14.67-15.45,21.16-29.7,21.16H484.66c-14.24,0-19.4-6.49-29.7-21.16l-.09-.12a161.67,161.67,0,0,0-26.37-30.71c-22.55-19.82-21.73-36.33-20.7-57.23l.11-2.1a8,8,0,0,0-3.61-7,6.8,6.8,0,0,0-1.45-.73,4.74,4.74,0,0,1-.72-.34,46.48,46.48,0,0,1-22.57-31,3.64,3.64,0,0,1-.07-.44,141.63,141.63,0,0,1-.86-20.9,5,5,0,0,1,9.29-2.4,71.92,71.92,0,0,0,60.39,34.76h.16a104.87,104.87,0,0,0,49.39-9.89,5,5,0,0,1,4.27,0,104.94,104.94,0,0,0,49.4,9.89h.17A71.89,71.89,0,0,0,612.08,512,5,5,0,0,1,617.62,509.73ZM399.87,487.25a5,5,0,0,1,6.41-4.87A302.41,302.41,0,0,0,473,494c1.25.1,2.42.17,3.6.25h.16c2.87.17,5.87.35,8.88.45l1,.06.63,0a5,5,0,0,1,4.85,5V518.9a5,5,0,0,1-3,4.6A93.73,93.73,0,0,1,452.38,531c-1.44,0-2.87,0-4.31-.1a56.23,56.23,0,0,1-47-27.73,5,5,0,0,1-.67-2.24C400.14,496,399.94,491.84,399.87,487.25ZM507.94,519V499.79a5,5,0,0,1,4.84-5l.64,0c.33,0,.66-.05,1-.06,3-.11,6-.28,8.9-.45L527,494a303,303,0,0,0,66.75-11.61,5,5,0,0,1,6.4,4.87c-.08,5.12-.32,9.78-.54,13.67a5,5,0,0,1-.68,2.23,56.27,56.27,0,0,1-47,27.73c-1.42.06-2.85.1-4.27.1A94.44,94.44,0,0,1,511,523.55,5,5,0,0,1,507.94,519Zm96.42-57.23c-1.29.52-2.62,1-3.91,1.45l-1.56.56-.1,0a286.26,286.26,0,0,1-81.46,14.92l-1,.06-1.28.07c-4.83.2-9.9.31-15.09.32h-.4c-4.9,0-9.84-.11-14.68-.32l-1.31-.07-1-.07a285.88,285.88,0,0,1-81.4-14.91l-.11,0-1.61-.57c-1.27-.46-2.58-.92-3.86-1.43-27.7-11-43-24.93-43-39.35,0-14.19,15.66-28.56,43-39.43a5,5,0,0,1,6.82,5.11c0,.34,0,.67,0,1s0,1-.07,1.45c-.6,7.26-.87,13.27-.87,18.92A7.93,7.93,0,0,0,405,416a179.34,179.34,0,0,0,190.1,0,8,8,0,0,0,3.47-6.56c0-5.57-.28-11.58-.88-18.91,0-.51,0-1-.07-1.49,0-.33,0-.66,0-1a5,5,0,0,1,6.83-5.08c27.31,10.87,43,25.24,43,39.43S631.67,450.92,604.36,461.72Z"/><path class="cls-4" d="M546.75,616.49a7.87,7.87,0,0,1-2.35,5.62,51.93,51.93,0,0,1-31.68,15.23,7.94,7.94,0,0,1,.22-15.88,4.75,4.75,0,0,0,1-.1,37,37,0,0,0,19.32-10.56,8,8,0,0,1,11.19.1A7.86,7.86,0,0,1,546.75,616.49Z"/></svg>