<svg id="Capa_1" data-name="Capa 1" xmlns="http://www.w3.org/2000/svg" viewBox="0 0 1000 1000"><defs><style>.cls-1{font-size:72px;fill:#00ffa2;font-family:MyriadPro-Regular, Myriad Pro;}.cls-2{letter-spacing:0.01em;}.cls-3{fill:none;stroke:#00ffa2;stroke-linecap:round;stroke-linejoin:round;stroke-width:15px;}</style></defs><text class="cls-1" transform="translate(1089.37 -385.76)">hidden<tspan x="1.22" y="86.4">socie</tspan><tspan class="cls-2" x="154.44" y="86.4">t</tspan><tspan x="178.92" y="86.4">y</tspan></text><polygon class="cls-3" points="722.75 336.03 722.75 663.97 500 741.83 500 413.9 569.11 389.74 569.11 473.12 651.69 444.25 651.69 360.87 722.75 336.03"/><path class="cls-3" d="M277.25,336V664L500,741.83V413.9ZM405.37,603.14l-.28,28.42c-.13,12.87-2.23,12.31-11.06,10l-19.2-5.15-4.28-1.14c-5.59-1.51-6.62-5.58-6.52-14.67l.28-28.42c.13-12.89,2.25-12.31,11.06-10l19.2,5.15c.79.2,2.39.63,4.53,1.21C404.7,590,405.46,594,405.37,603.14Zm41.18-76-47.09,26.13-.12,10.23-27.47-7.34.28-27.29,46.57-27.41.17-17.06L357.5,468l-.24,24.63-26.88-13.28.11-10.6c.26-26.92,10-37.59,29.2-32.46l54.44,14.6c22.15,5.94,33,20.22,32.72,45.23Z"/><polygon class="cls-3" points="569.11 389.74 500 413.9 277.25 336.03 346.34 311.88 569.11 389.74"/><polygon class="cls-3" points="651.69 360.87 651.69 359.52 430.89 282.33 500 258.17 722.75 336.03 651.69 360.87"/><polygon class="cls-3" points="651.69 360.87 651.69 444.25 569.11 473.12 569.11 389.74 651.69 360.87"/><polygon class="cls-3" points="651.69 359.52 651.69 360.87 569.11 389.74 346.34 311.88 430.89 282.33 651.69 359.52"/><path class="cls-3" d="M446.85,496.1l-.3,31.06-47.09,26.13-.12,10.23-27.47-7.34.28-27.29,46.57-27.41.17-17.06L357.5,468l-.24,24.63-26.88-13.28.11-10.6c.26-26.92,10-37.59,29.2-32.46l54.44,14.6C436.28,456.81,447.09,471.09,446.85,496.1Z"/><path class="cls-3" d="M405.37,603.14l-.28,28.42c-.13,12.87-2.23,12.31-11.06,10l-19.2-5.15-4.28-1.14c-5.59-1.51-6.62-5.58-6.52-14.67l.28-28.42c.13-12.89,2.25-12.31,11.06-10l19.2,5.15c.79.2,2.39.63,4.53,1.21C404.7,590,405.46,594,405.37,603.14Z"/></svg>