<svg xmlns="http://www.w3.org/2000/svg" viewBox="0 0 512.86 706.32"><defs><style>.cls-1{fill:#00ffa2;}</style></defs><title>Asset 3</title><g id="Layer_2" data-name="Layer 2"><g id="Layer_1-2" data-name="Layer 1"><path class="cls-1" d="M307.66,320.29a24.67,24.67,0,0,0-47.13-10.2,43.81,43.81,0,0,0-5.71-.38,43.09,43.09,0,1,0,43.11,43.1A42.53,42.53,0,0,0,296.26,341a24.44,24.44,0,0,0,11.4-20.75M254.82,383.9a31.1,31.1,0,1,1,0-62.2,29.93,29.93,0,0,1,3.55.2,24.7,24.7,0,0,0,24.61,23c.62,0,1.26,0,1.93-.09a31.11,31.11,0,0,1-30.09,39m32.11-51.59A12.07,12.07,0,0,1,283,333a12.68,12.68,0,0,1-12.67-12.66,11.78,11.78,0,0,1,.2-2.18V318a12.67,12.67,0,1,1,16.4,14.27"/><path class="cls-1" d="M142.52,162.05a18.63,18.63,0,0,0-18.6,18.65,18.63,18.63,0,0,0-18.6-18.65,18.6,18.6,0,0,0,18.6-18.6,18.6,18.6,0,0,0,18.6,18.6"/><path class="cls-1" d="M394,159.94a14.8,14.8,0,0,0-14.82,14.83,14.8,14.8,0,0,0-14.8-14.83,14.82,14.82,0,0,0,14.8-14.83A14.82,14.82,0,0,0,394,159.94"/><path class="cls-1" d="M43.9,391.54a21.9,21.9,0,0,0-21.9,22,22,22,0,0,0-22-22,22,22,0,0,0,22-22,21.9,21.9,0,0,0,21.9,22"/><path class="cls-1" d="M399.59,549.49A15.65,15.65,0,0,0,384,565.2a15.7,15.7,0,0,0-15.7-15.71A15.7,15.7,0,0,0,384,533.78a15.65,15.65,0,0,0,15.64,15.71"/><path class="cls-1" d="M512.86,325.56a19.75,19.75,0,0,0-19.76,19.79A19.82,19.82,0,0,0,477.53,326h0a20.3,20.3,0,0,0-4.23-.45,19.8,19.8,0,0,0,19.8-19.8,19.75,19.75,0,0,0,19.76,19.8"/><polygon class="cls-1" points="319.98 560.92 317.48 554.86 314.53 560.73 292.21 605.18 254.82 679.63 217.42 605.18 195.11 560.76 192.17 554.89 189.66 560.95 186.64 568.26 186.11 569.53 186.73 570.76 202.71 602.57 252.14 700.99 254.82 706.32 257.5 700.99 306.93 602.57 322.92 570.73 323.53 569.5 323.01 568.23 319.98 560.92"/><polygon class="cls-1" points="156.63 484.08 154.76 480.37 151.83 483.3 147.36 487.77 145.83 489.3 146.8 491.23 160.07 517.68 163 523.52 165.52 517.49 168.58 510.18 169.11 508.91 168.49 507.68 156.63 484.08"/><polygon class="cls-1" points="165.7 188.51 163.19 182.44 160.25 188.31 147.07 214.58 146.1 216.51 147.63 218.04 152.09 222.51 155.03 225.45 156.9 221.73 168.64 198.31 169.25 197.08 168.73 195.82 165.7 188.51"/><polygon class="cls-1" points="189.84 145.04 192.35 151.1 195.29 145.24 217.44 101.13 217.45 101.13 254.82 26.72 292.21 101.14 314.38 145.27 317.33 151.13 319.83 145.07 322.86 137.76 323.38 136.49 322.77 135.26 306.94 103.75 257.5 5.33 254.82 0 252.14 5.33 202.72 103.75 186.91 135.23 186.29 136.46 186.82 137.73 189.84 145.04"/><polygon class="cls-1" points="352.78 221.73 354.65 225.44 357.58 222.51 362.04 218.04 363.58 216.51 362.6 214.57 349.39 188.34 346.45 182.48 343.94 188.54 340.92 195.85 340.39 197.11 341.01 198.34 352.78 221.73"/><polygon class="cls-1" points="362.28 487.74 357.85 483.3 354.92 480.37 353.05 484.08 341.19 507.65 340.57 508.88 341.1 510.15 344.12 517.45 346.63 523.52 349.58 517.65 362.84 491.2 363.82 489.27 362.28 487.74"/><path class="cls-1" d="M307.66,320.29a24.67,24.67,0,0,0-47.13-10.2,43.81,43.81,0,0,0-5.71-.38,43.09,43.09,0,1,0,43.11,43.1A42.53,42.53,0,0,0,296.26,341a24.44,24.44,0,0,0,11.4-20.75M254.82,383.9a31.1,31.1,0,1,1,0-62.2,29.93,29.93,0,0,1,3.55.2,24.7,24.7,0,0,0,24.61,23c.62,0,1.26,0,1.93-.09a31.11,31.11,0,0,1-30.09,39m32.11-51.59A12.07,12.07,0,0,1,283,333a12.68,12.68,0,0,1-12.67-12.66,11.78,11.78,0,0,1,.2-2.18V318a12.67,12.67,0,1,1,16.4,14.27m20.73-12a24.67,24.67,0,0,0-47.13-10.2,43.81,43.81,0,0,0-5.71-.38,43.09,43.09,0,1,0,43.11,43.1A42.53,42.53,0,0,0,296.26,341a24.44,24.44,0,0,0,11.4-20.75M254.82,383.9a31.1,31.1,0,1,1,0-62.2,29.93,29.93,0,0,1,3.55.2,24.7,24.7,0,0,0,24.61,23c.62,0,1.26,0,1.93-.09a31.11,31.11,0,0,1-30.09,39m32.11-51.59A12.07,12.07,0,0,1,283,333a12.68,12.68,0,0,1-12.67-12.66,11.78,11.78,0,0,1,.2-2.18V318a12.67,12.67,0,1,1,16.4,14.27m20.73-12a24.67,24.67,0,0,0-47.13-10.2,43.81,43.81,0,0,0-5.71-.38,43.09,43.09,0,1,0,43.11,43.1A42.53,42.53,0,0,0,296.26,341a24.44,24.44,0,0,0,11.4-20.75M254.82,383.9a31.1,31.1,0,1,1,0-62.2,29.93,29.93,0,0,1,3.55.2,24.7,24.7,0,0,0,24.61,23c.62,0,1.26,0,1.93-.09a31.11,31.11,0,0,1-30.09,39m32.11-51.59A12.07,12.07,0,0,1,283,333a12.68,12.68,0,0,1-12.67-12.66,11.78,11.78,0,0,1,.2-2.18V318a12.67,12.67,0,1,1,16.4,14.27m20.73-12a24.67,24.67,0,0,0-47.13-10.2,43.81,43.81,0,0,0-5.71-.38,43.09,43.09,0,1,0,43.11,43.1A42.53,42.53,0,0,0,296.26,341a24.44,24.44,0,0,0,11.4-20.75M254.82,383.9a31.1,31.1,0,1,1,0-62.2,29.93,29.93,0,0,1,3.55.2,24.7,24.7,0,0,0,24.61,23c.62,0,1.26,0,1.93-.09a31.11,31.11,0,0,1-30.09,39m32.11-51.59A12.07,12.07,0,0,1,283,333a12.68,12.68,0,0,1-12.67-12.66,11.78,11.78,0,0,1,.2-2.18V318a12.67,12.67,0,1,1,16.4,14.27m177.73,19.2-1.08-1.64c-.22-.33-.43-.66-.65-1a249.69,249.69,0,0,0-415.88-.49l-1,1.47L45,351.51l-1.09,1.65L45,354.81l1.08,1.64,1,1.47a249.68,249.68,0,0,0,415.87-.49c.23-.32.44-.65.66-1l1.08-1.64,1.08-1.65ZM66.08,364q-4-5.26-7.79-10.79,3.76-5.52,7.79-10.79a235.67,235.67,0,0,1,121.67-83.59,116.18,116.18,0,0,0-23.21,22,113.59,113.59,0,0,0-6.74,9.34,115.51,115.51,0,0,0,31.75,157.94A235.17,235.17,0,0,1,66.08,364m188.73,92.39A103.66,103.66,0,1,1,317,435.5a102.94,102.94,0,0,1-62.22,20.84m188.47-92a235.23,235.23,0,0,1-123.22,83.76,115.39,115.39,0,0,0,31.76-158q-3.1-4.77-6.64-9.2a115.55,115.55,0,0,0-23.33-22.15A235.6,235.6,0,0,1,443.28,342q4.19,5.44,8.08,11.17-3.9,5.71-8.08,11.17M283,295.63a24.54,24.54,0,0,0-22.45,14.46,43.81,43.81,0,0,0-5.71-.38,43.09,43.09,0,1,0,43.11,43.1A42.53,42.53,0,0,0,296.26,341a24.44,24.44,0,0,0,11.4-20.75A24.7,24.7,0,0,0,283,295.63M254.82,383.9a31.1,31.1,0,1,1,0-62.2,29.93,29.93,0,0,1,3.55.2,24.7,24.7,0,0,0,24.61,23c.62,0,1.26,0,1.93-.09a31.11,31.11,0,0,1-30.09,39m32.11-51.59A12.07,12.07,0,0,1,283,333a12.68,12.68,0,0,1-12.67-12.66,11.78,11.78,0,0,1,.2-2.18V318a12.67,12.67,0,1,1,16.4,14.27m20.73-12a24.67,24.67,0,0,0-47.13-10.2,43.81,43.81,0,0,0-5.71-.38,43.09,43.09,0,1,0,43.11,43.1A42.53,42.53,0,0,0,296.26,341a24.44,24.44,0,0,0,11.4-20.75M254.82,383.9a31.1,31.1,0,1,1,0-62.2,29.93,29.93,0,0,1,3.55.2,24.7,24.7,0,0,0,24.61,23c.62,0,1.26,0,1.93-.09a31.11,31.11,0,0,1-30.09,39m32.11-51.59A12.07,12.07,0,0,1,283,333a12.68,12.68,0,0,1-12.67-12.66,11.78,11.78,0,0,1,.2-2.18V318a12.67,12.67,0,1,1,16.4,14.27m20.73-12a24.67,24.67,0,0,0-47.13-10.2,43.81,43.81,0,0,0-5.71-.38,43.09,43.09,0,1,0,43.11,43.1A42.53,42.53,0,0,0,296.26,341a24.44,24.44,0,0,0,11.4-20.75M254.82,383.9a31.1,31.1,0,1,1,0-62.2,29.93,29.93,0,0,1,3.55.2,24.7,24.7,0,0,0,24.61,23c.62,0,1.26,0,1.93-.09a31.11,31.11,0,0,1-30.09,39m32.11-51.59A12.07,12.07,0,0,1,283,333a12.68,12.68,0,0,1-12.67-12.66,11.78,11.78,0,0,1,.2-2.18V318a12.67,12.67,0,1,1,16.4,14.27"/><path class="cls-1" d="M80.19,431.59l-1.64.68L23.77,455l-2.15.88q-2.41-5.48-4.57-11.08l2.13-.88,50.87-21.09q3.53,3.21,7.32,6.42c.94.79,1.87,1.58,2.82,2.36"/><path class="cls-1" d="M19.18,261.67l-1.88-.78q2.18-5.59,4.61-11.07l1.85.77L79.2,273.53l1.65.68q-1.74,1.43-3.46,2.88Q73.91,280,70.66,283Z"/><path class="cls-1" d="M144.68,471.4,78.79,537.3h0c-2.89-2.77-5.71-5.59-8.46-8.49L72,527.08,133.11,466q5.73,2.83,11.57,5.39"/><path class="cls-1" d="M145.23,234.68q-5.85,2.55-11.58,5.38L72,178.45l-1.34-1.34q4.14-4.34,8.49-8.47Z"/><path class="cls-1" d="M204.61,489.69l-40.9,98.74-1,2.32q-5.61-2.16-11.08-4.59l1-2.32,40-96.6q5.94,1.36,12,2.45"/><path class="cls-1" d="M204.9,216.58q-6,1.09-12,2.44l-40.3-97.27-.71-1.7q5.47-2.43,11.09-4.58l.7,1.69Z"/><path class="cls-1" d="M260.82,98.48V212.25q-3.12-.08-6.25-.07c-1.92,0-3.83,0-5.74.06V98.48q3-.08,6-.07t6,.07"/><path class="cls-1" d="M260.82,494.07V607.84q-3,.07-6,.07t-6-.07V494.08c1.9,0,3.8.06,5.71.06q3.15,0,6.28-.07"/><path class="cls-1" d="M357.73,120.05l-.72,1.73L316.7,219.13q-5.93-1.35-11.95-2.45l41.19-99.48.71-1.73q5.61,2.16,11.08,4.58"/><path class="cls-1" d="M358,586.14q-5.47,2.43-11.08,4.6l-1-2.34L305,489.59c4-.73,8-1.56,11.94-2.47L357,583.81Z"/><path class="cls-1" d="M439,177.12h0l-1.36,1.35-61.76,61.76q-5.73-2.84-11.57-5.39L429.12,170l1.35-1.35c2.9,2.76,5.72,5.58,8.49,8.47"/><path class="cls-1" d="M439.34,528.8q-4.14,4.35-8.47,8.48l-66.06-66.06q5.83-2.57,11.55-5.41l61.24,61.25Z"/><path class="cls-1" d="M492.33,260.87l-1.92.8-51.76,21.45c-2.23-2-4.53-4-6.91-6q-1.62-1.38-3.27-2.73l2-.83,55.35-22.94,1.9-.79q2.44,5.47,4.61,11.07"/><path class="cls-1" d="M492.58,444.8q-2.15,5.61-4.57,11.08l-2.19-.91-54.7-22.7-2-.84c.88-.73,1.76-1.46,2.63-2.2q3.88-3.28,7.5-6.58l51.19,21.25Z"/></g></g></svg>